<mxfile host="app.diagrams.net" modified="2023-10-06T08:12:45.505Z" agent="Mozilla/5.0 (Windows NT 10.0; Win64; x64) AppleWebKit/537.36 (KHTML, like Gecko) Chrome/110.0.0.0 Safari/537.36 Edg/110.0.1587.50" version="22.0.2" etag="_6WbOu22KjoA2afSGAns" type="github">
  <diagram name="PÃ¡gina-1" id="9Hkv9MTr_Q9raYRLkQq6">
    <mxGraphModel>
      <root>
        <mxCell id="0" />
        <mxCell id="1" parent="0" />
      </root>
    </mxGraphModel>
  </diagram>
</mxfile>
